<?xml version="1.0" standalone="no"?>
<!DOCTYPE svg PUBLIC "-//W3C//DTD SVG 20010904//EN"
 "http://www.w3.org/TR/2001/REC-SVG-20010904/DTD/svg10.dtd">
<svg version="1.0" xmlns="http://www.w3.org/2000/svg"
 width="16.000000pt" height="16.000000pt" viewBox="0 0 16.000000 16.000000"
 preserveAspectRatio="xMidYMid meet">
<metadata>
Created by potrace 1.11, written by Peter Selinger 2001-2013
</metadata>
<g transform="translate(0.000000,16.000000) scale(0.002286,-0.002286)"
fill="#000000" stroke="none">
<path d="M2067 5903 c-3 -32 -8 -69 -11 -83 -8 -36 -15 -90 -18 -132 -1 -21
-5 -38 -8 -38 -14 0 -7 -46 9 -65 10 -11 23 -33 28 -50 11 -33 37 -45 46 -21
5 13 10 246 8 394 -1 48 -3 52 -25 52 -21 0 -24 -5 -29 -57z"/>
<path d="M5287 5643 c-44 -27 -69 -36 -107 -37 -46 -1 -54 -5 -90 -45 -22 -24
-40 -40 -40 -35 0 5 -7 -1 -15 -14 -15 -21 -65 -28 -65 -10 0 31 -116 -17
-155 -64 -13 -15 -26 -24 -29 -21 -3 4 -6 1 -6 -5 0 -7 -18 -30 -40 -52 -22
-22 -40 -43 -40 -48 0 -4 -8 -15 -17 -24 -37 -33 -63 -66 -63 -78 0 -6 -14
-25 -31 -42 -25 -25 -33 -29 -40 -17 -12 20 -11 27 8 60 10 16 24 29 33 29 9
0 16 10 16 25 1 13 9 32 18 40 9 9 16 21 16 27 0 12 3 16 69 87 23 24 41 49
41 55 0 6 18 31 41 56 46 52 83 116 70 124 -4 3 -18 -4 -29 -15 -12 -11 -22
-17 -22 -13 0 4 -14 -12 -30 -35 -17 -23 -48 -59 -70 -81 -22 -22 -40 -44 -40
-48 0 -4 -10 -20 -22 -36 -32 -40 -174 -186 -181 -186 -3 0 -28 -22 -56 -50
-28 -27 -55 -50 -60 -50 -16 0 -20 -41 -5 -47 14 -5 19 -3 64 22 28 16 29 15
35 -13 2 -14 -6 -31 -26 -49 -16 -15 -29 -36 -29 -45 0 -10 -4 -18 -9 -18 -18
0 -101 -90 -101 -109 0 -11 -11 -32 -26 -46 -20 -20 -29 -23 -44 -15 -29 16
-32 26 -19 70 11 35 49 76 49 53 0 -4 4 -2 9 6 11 18 -8 40 -29 33 -8 -3 -23
-13 -33 -24 -32 -33 -53 -22 -107 57 -14 20 -35 49 -47 65 -13 15 -23 33 -23
40 0 7 -8 20 -18 29 -9 9 -23 28 -31 43 -15 29 -47 43 -55 23 -2 -7 6 -29 20
-48 13 -20 24 -45 24 -56 0 -11 8 -26 18 -33 19 -15 82 -102 82 -115 0 -4 12
-21 26 -36 31 -34 30 -77 -3 -92 -26 -11 -31 -50 -8 -59 19 -7 47 3 40 14 -3
5 4 12 16 15 11 4 21 5 22 3 1 -1 9 -16 19 -33 25 -47 29 -94 9 -114 -9 -9
-27 -33 -39 -53 -36 -58 -65 -60 -96 -7 -10 17 -16 41 -13 55 2 13 0 27 -5 30
-4 3 -6 9 -3 13 4 8 -33 48 -41 44 -17 -11 -43 1 -48 22 -3 13 -20 40 -36 58
-16 19 -27 37 -23 41 3 3 -1 6 -11 6 -9 0 -19 8 -23 18 -6 20 -280 292 -293
292 -5 0 -20 11 -34 25 -14 14 -28 25 -31 25 -11 0 -95 71 -93 78 2 4 -3 21
-9 39 -10 26 -18 33 -50 38 -21 3 -56 15 -79 26 -57 26 -64 24 -64 -16 0 -22
-5 -35 -13 -35 -7 0 -21 -19 -32 -42 -20 -42 -21 -43 -70 -44 -27 0 -77 8
-110 19 -75 23 -85 25 -110 26 -11 1 -33 12 -49 26 -34 29 -39 30 -57 9 -19
-23 -63 -38 -147 -51 -30 -5 -91 11 -149 39 -12 6 -23 20 -25 32 -5 34 -35 31
-59 -6 -31 -48 -100 -89 -157 -94 -40 -4 -53 0 -82 21 -32 24 -35 24 -38 8 -9
-55 -63 -78 -75 -31 -7 24 19 106 40 130 18 20 9 58 -15 59 -49 4 -73 -15
-107 -81 -24 -47 -60 -90 -74 -90 -13 0 -61 85 -61 109 0 22 44 61 69 61 9 0
25 7 36 16 15 11 17 18 8 32 -17 27 -85 15 -131 -24 -9 -7 -25 -19 -34 -26 -9
-7 -18 -20 -20 -28 -2 -8 -10 -20 -18 -27 -21 -16 -19 -132 2 -166 17 -25 23
-53 33 -144 3 -28 10 -64 16 -80 6 -15 10 -29 9 -31 -1 -1 1 -15 4 -30 17 -86
20 -114 19 -182 0 -60 -5 -86 -26 -130 -31 -63 -34 -112 -11 -155 19 -35 54
-152 48 -158 -11 -11 -6 -78 8 -109 20 -43 18 -174 -4 -248 -9 -30 -22 -81
-28 -112 -6 -32 -18 -64 -26 -72 -8 -8 -14 -24 -14 -35 0 -16 6 -21 28 -21 16
0 36 -6 46 -13 17 -13 19 -40 22 -415 1 -221 5 -419 9 -440 13 -88 49 -183 83
-223 35 -41 36 -41 91 -35 31 3 57 5 59 6 5 0 1 26 -8 62 -10 34 -14 37 -52
40 -63 5 -77 36 -83 179 -3 63 -8 157 -11 209 -11 174 -13 163 23 180 33 15
41 45 13 45 -8 1 -23 5 -33 11 -15 9 -18 28 -22 128 -3 113 -3 119 24 164 35
60 75 77 101 44 12 -15 17 -35 15 -60 -2 -20 -4 -37 -4 -37 -2 0 -3 -512 -2
-592 1 -41 6 -57 26 -77 17 -17 25 -36 25 -59 0 -29 4 -35 35 -46 32 -11 40
-21 36 -44 -3 -17 41 -88 64 -103 25 -17 85 -12 85 7 0 6 4 8 9 4 16 -10 2 57
-14 69 -9 6 -18 27 -21 46 -3 19 -18 76 -34 125 -16 50 -31 104 -32 120 -2 24
11 148 18 178 1 4 2 16 3 27 1 27 48 73 63 64 6 -4 8 -3 5 3 -4 6 7 16 23 23
38 16 55 65 51 150 -7 166 -3 250 13 275 8 12 16 44 18 71 6 94 58 53 94 -74
9 -31 22 -66 29 -77 6 -11 18 -43 24 -72 14 -59 28 -75 58 -67 19 5 19 9 10
52 -5 25 -20 65 -34 89 -13 24 -22 43 -19 43 6 0 -26 111 -45 157 -12 29 -11
34 15 67 27 36 61 47 82 27 18 -17 62 -16 82 2 16 14 25 16 39 8 11 -5 33 -12
49 -14 20 -3 30 -10 34 -28 7 -29 1 -69 -11 -69 -5 0 7 -16 26 -36 19 -20 35
-39 35 -44 0 -19 31 -18 50 2 26 28 26 65 -1 86 -29 24 -16 56 20 47 14 -4 37
-9 51 -12 36 -6 42 -16 45 -69 4 -53 21 -74 58 -67 18 4 40 -12 105 -77 45
-45 82 -86 82 -92 0 -6 -16 -25 -36 -42 -91 -79 -146 -139 -191 -207 -74 -112
-87 -154 -62 -200 13 -26 21 -20 57 44 16 28 52 80 78 113 27 34 54 70 60 80
9 15 15 16 24 7 18 -17 15 -80 -6 -110 -24 -37 -30 -267 -8 -286 36 -29 63
-61 58 -69 -3 -4 0 -8 6 -8 19 0 5 -78 -16 -98 -21 -19 -23 -25 -28 -85 -5
-65 7 -87 47 -87 37 0 55 12 82 55 21 33 31 46 63 80 12 13 22 28 22 33 0 4
14 21 30 37 17 16 30 35 30 42 0 7 5 13 10 13 6 0 10 5 10 10 0 12 16 33 44
58 10 9 23 22 30 27 14 14 97 45 117 45 9 0 16 6 16 13 2 48 23 109 43 127 10
8 21 30 24 48 4 17 11 32 15 32 4 0 17 18 29 39 12 22 27 41 33 43 5 2 11 13
12 26 0 12 14 36 29 54 15 18 28 38 28 43 0 11 23 44 52 76 16 17 20 17 61 3
24 -8 73 -39 109 -69 37 -30 70 -55 76 -55 14 0 43 -36 35 -43 -3 -4 3 -7 15
-7 17 0 22 6 22 26 0 14 -4 23 -10 19 -6 -3 -13 2 -17 12 -4 10 -25 34 -47 53
-84 73 -166 161 -172 184 -7 28 3 69 15 62 4 -3 7 5 6 17 -3 26 21 57 44 57
15 0 111 -128 111 -148 0 -5 9 -20 21 -33 11 -13 29 -34 39 -46 24 -28 53 -83
43 -83 -4 0 2 -7 14 -15 24 -17 67 -88 77 -127 4 -18 11 -25 20 -22 14 5 59
-43 52 -55 -7 -11 63 -54 79 -47 9 3 15 18 15 35 0 36 13 46 40 31 21 -11 25
-23 35 -102 5 -38 15 -56 46 -88 22 -22 45 -40 50 -40 10 0 60 -36 81 -58 24
-24 68 -81 68 -87 0 -4 8 -15 18 -24 28 -25 82 -98 77 -103 -3 -2 11 -20 30
-38 19 -19 35 -31 35 -27 0 3 16 -5 36 -18 46 -31 73 -19 69 33 -3 37 7 44 59
46 27 1 31 5 34 34 2 18 -1 32 -7 32 -6 0 -11 9 -11 20 0 20 4 20 88 14 48 -4
90 -8 94 -10 3 -2 13 -1 22 2 12 4 16 19 16 53 0 45 -2 48 -38 64 -24 11 -46
30 -58 52 -10 19 -21 35 -24 35 -10 0 -75 92 -72 101 1 5 -2 9 -7 9 -5 0 -19
16 -31 34 -11 19 -29 38 -40 41 -10 3 -43 45 -73 93 -66 103 -107 159 -124
166 -12 5 -43 -19 -43 -33 0 -4 11 -14 25 -21 13 -7 28 -23 31 -34 3 -12 14
-30 24 -41 9 -11 22 -36 29 -55 6 -19 20 -44 32 -56 11 -11 22 -39 25 -60 3
-21 12 -63 21 -92 8 -29 13 -56 10 -58 -20 -21 -147 91 -172 150 -9 20 -20 36
-26 36 -5 0 -8 4 -5 9 4 5 2 11 -3 13 -5 1 -11 17 -14 33 -2 17 -14 47 -26 69
-12 21 -20 40 -18 42 2 2 -20 30 -49 61 -29 32 -51 60 -49 63 2 4 -5 13 -16
21 -11 8 -27 29 -34 47 -8 17 -19 32 -24 32 -6 0 -11 7 -11 15 0 8 -4 15 -8
15 -5 0 -15 12 -23 28 -16 30 -18 34 -55 80 -14 17 -23 32 -19 32 4 0 -7 12
-24 27 -17 15 -31 33 -31 40 0 7 -4 13 -8 13 -4 0 -16 14 -25 30 -10 17 -16
30 -12 30 3 0 -8 14 -25 31 -16 17 -35 44 -42 60 -7 16 -16 29 -19 29 -4 0
-12 14 -19 30 -7 17 -16 30 -21 30 -18 0 3 45 33 71 40 34 49 35 73 9 10 -11
15 -20 11 -20 -4 0 4 -11 16 -24 13 -13 25 -24 28 -24 22 0 34 -11 81 -76 30
-41 65 -94 79 -116 39 -65 77 -103 95 -96 11 4 13 10 6 23 -5 10 -14 29 -20
43 -6 14 -29 54 -51 89 -22 34 -40 68 -40 75 0 6 -11 28 -25 48 -21 32 -29 54
-50 141 -2 10 -13 33 -25 51 -11 18 -20 47 -20 65 0 26 9 37 59 73 71 52 132
137 125 176 -3 15 -9 29 -15 30 -17 6 -9 45 15 76 12 17 31 47 41 66 10 18 23
39 29 46 6 6 25 29 41 50 17 21 38 46 48 56 9 10 17 24 17 32 0 7 14 31 31 52
31 40 34 60 15 134 -5 21 5 34 64 90 104 98 131 116 152 104 7 -4 8 -3 4 4 -4
7 -4 12 1 12 4 0 26 36 47 80 22 44 47 82 55 85 16 5 61 75 61 94 0 16 -9 13
-73 -26z m-2955 -405 c18 -29 -2 -45 -75 -60 -44 -9 -59 -9 -71 1 -23 19 -8
40 38 53 22 6 45 15 50 19 12 10 48 2 58 -13z m254 -113 c16 -10 24 -25 24
-44 0 -38 -21 -54 -60 -46 -20 4 -48 0 -79 -11 -27 -9 -56 -14 -65 -11 -23 9
-38 55 -28 86 7 21 17 27 48 31 92 12 137 10 160 -5z m-304 -52 c21 -18 24
-52 6 -54 -36 -4 -64 3 -82 20 -16 17 -17 23 -6 35 16 21 59 20 82 -1z m1256
-316 c2 -12 -3 -17 -17 -17 -12 0 -21 6 -21 13 0 31 32 34 38 4z m-1236 -93
c16 -46 33 -49 57 -8 24 40 33 42 54 11 13 -20 13 -27 1 -53 -28 -63 -73 -95
-125 -90 -49 5 -79 23 -81 49 -4 59 4 113 17 123 27 20 63 5 77 -32z m303 7
c13 -43 -18 -92 -48 -74 -6 4 -25 8 -42 9 -16 1 -33 3 -37 3 -15 2 -8 32 10
38 9 4 28 15 41 25 31 24 68 23 76 -1z m113 7 c7 -7 12 -25 12 -40 0 -21 -6
-29 -25 -34 -45 -11 -76 34 -52 74 10 15 49 16 65 0z m882 -11 c0 -4 7 -15 15
-24 27 -26 48 -63 41 -70 -9 -9 -75 27 -86 46 -9 20 6 64 21 59 6 -2 10 -7 9
-11z m-140 -77 c42 -22 50 -90 12 -90 -24 -1 -49 -22 -53 -46 -2 -11 5 -39 15
-62 15 -32 25 -42 43 -42 12 0 23 4 23 9 0 17 53 61 75 61 29 0 71 -42 78 -79
10 -48 33 -63 86 -56 25 4 56 9 67 10 23 3 74 -37 74 -58 0 -20 -31 -59 -100
-126 -63 -61 -66 -63 -109 -58 -45 5 -63 20 -54 44 7 19 -22 60 -49 69 -12 4
-35 16 -49 27 -27 19 -49 17 -49 -6 0 -7 9 -18 21 -25 28 -18 48 -70 42 -109
-5 -31 -3 -33 23 -33 21 0 32 -7 40 -25 10 -20 8 -32 -14 -72 -13 -26 -35 -58
-48 -71 l-23 -23 -20 20 c-12 12 -21 24 -21 29 0 4 -13 13 -29 20 -46 20 -188
176 -222 244 -37 72 -39 102 -10 148 13 21 21 52 21 78 0 29 6 48 20 62 12 12
30 40 42 63 28 55 56 90 76 99 26 10 71 9 92 -2z m-1012 -78 c6 -5 23 -23 37
-42 27 -37 24 -47 -23 -103 -51 -59 -73 -76 -90 -69 -26 9 -51 44 -52 70 0 30
44 106 77 132 29 22 33 23 51 12z m1261 -18 c2 -10 7 -22 12 -25 24 -15 18
-79 -7 -79 -31 0 -61 99 -37 124 11 11 28 1 32 -20z m-869 -484 c0 -11 -6 -20
-13 -20 -7 0 -13 9 -14 20 -1 11 4 20 13 20 8 0 14 -9 14 -20z m863 -132 c5
-16 -11 -76 -24 -92 -5 -6 -16 -20 -23 -30 -12 -18 -15 -18 -61 14 -39 27 -45
35 -34 44 8 6 15 18 17 26 8 35 115 67 125 38z m-137 -162 l39 -34 -29 -31
c-17 -17 -38 -31 -47 -31 -26 0 -71 63 -62 86 20 53 46 56 99 10z m-182 -205
c17 -18 16 -20 -1 -40 -34 -41 -71 -15 -52 37 10 27 30 28 53 3z m-50 -96 c8
-21 -3 -45 -20 -45 -8 0 -17 7 -20 15 -8 21 2 45 20 45 7 0 16 -7 20 -15z"/>
<path d="M3278 4438 c-3 -7 5 -22 16 -34 12 -11 39 -42 60 -67 44 -51 64 -58
84 -26 12 18 10 21 -17 32 -17 6 -31 14 -31 18 0 4 -18 25 -40 48 -40 41 -65
51 -72 29z"/>
</g>
</svg>
